# xmcd
#
# Track frame offsets:
#	150
#	31931
#	57399
#	69405
#	102914
#	138822
#	175795
#	201917
#
# Disc length: 2968 seconds
#
# Revision: 1
# Processed by: cddbd v1.5.1PL2 Copyright (c) Steve Scherf et al.
# Submitted via: EasyCDDAExtractor 9.0.0.1
#
DISCID=690b9608
DTITLE=Ozzy Osbourne - Obras Sanitarias Buenos Aires 12-09-95 Disc 2
DYEAR=1995
DGENRE=Hard Rock
TTITLE0=Sabbath Bloody Sabbath
TTITLE1=Sweet Leaf
TTITLE2=Children Of The Grave
TTITLE3=Mr Crowley
TTITLE4=War Pigs
TTITLE5=Crazy Train - Encore
TTITLE6=Mama I'm Coming Home  
TTITLE7=Bark At The Moon
EXTD=
EXTT0=
EXTT1=
EXTT2=
EXTT3=
EXTT4=
EXTT5=
EXTT6=
EXTT7=
PLAYORDER=
